<?xml version="1.0" standalone="no"?>
<!DOCTYPE svg PUBLIC "-//W3C//DTD SVG 20010904//EN"
 "http://www.w3.org/TR/2001/REC-SVG-20010904/DTD/svg10.dtd">
<svg version="1.0" xmlns="http://www.w3.org/2000/svg"
 width="500.000000pt" height="500.000000pt" viewBox="0 0 500.000000 500.000000"
 preserveAspectRatio="xMidYMid meet">
<metadata>
Created by potrace 1.14, written by Peter Selinger 2001-2017
</metadata>
<g transform="translate(0.000000,500.000000) scale(0.100000,-0.100000)"
fill="#000000" stroke="none">
<path d="M2372 4512 c-34 -2 -60 -7 -58 -11 3 -4 -1 -8 -9 -8 -8 0 -15 4 -15
9 0 5 -9 4 -19 -2 -14 -7 -21 -6 -24 3 -4 9 -6 9 -6 -1 -1 -7 -5 -10 -11 -7
-5 3 -10 1 -10 -5 0 -6 -5 -8 -12 -3 -14 8 -47 5 -63 -6 -5 -4 -20 -6 -32 -5
-13 0 -23 -2 -23 -6 0 -5 -9 -6 -20 -3 -11 3 -20 0 -20 -6 0 -6 -5 -11 -11
-11 -5 0 -8 4 -5 9 4 5 -3 7 -14 4 -11 -3 -18 -9 -15 -13 2 -4 -7 -6 -20 -4
-14 1 -25 -1 -25 -5 0 -4 -6 -8 -12 -9 -23 -2 -43 -7 -55 -15 -7 -5 -17 -5
-23 -2 -5 3 -10 1 -10 -5 0 -6 -4 -9 -9 -5 -5 3 -12 1 -16 -5 -4 -6 -11 -8
-16 -5 -5 4 -9 1 -9 -5 0 -7 -7 -10 -15 -6 -8 3 -15 1 -15 -5 0 -6 -4 -7 -10
-4 -5 3 -10 2 -10 -4 0 -6 -7 -8 -15 -5 -8 4 -15 1 -15 -5 0 -6 -9 -11 -19
-11 -11 0 -23 -5 -26 -11 -4 -6 -13 -8 -21 -5 -8 3 -17 -1 -20 -9 -4 -8 -10
-13 -14 -10 -5 3 -11 1 -15 -5 -6 -10 -67 -40 -92 -45 -13 -3 -75 -46 -84 -58
-3 -5 -9 -8 -12 -8 -13 1 -77 -41 -77 -51 0 -5 -4 -7 -9 -3 -6 3 -14 -3 -20
-12 -6 -10 -11 -15 -11 -11 0 8 -26 -12 -71 -54 -15 -14 -30 -24 -33 -21 -3 3
-8 -2 -12 -11 -3 -9 -13 -16 -21 -16 -8 0 -12 -3 -10 -8 3 -4 -12 -20 -34 -36
-21 -17 -39 -33 -39 -38 0 -4 -7 -8 -15 -8 -8 0 -15 -6 -15 -14 0 -8 -12 -24
-26 -35 -15 -12 -24 -21 -21 -21 3 0 -12 -18 -34 -40 -22 -22 -37 -40 -34 -40
3 0 -6 -11 -21 -25 -15 -14 -23 -25 -19 -25 4 0 -2 -9 -15 -20 -13 -11 -20
-20 -16 -20 4 0 -4 -12 -18 -27 -14 -15 -23 -30 -20 -35 3 -4 0 -8 -6 -8 -6 0
-15 -10 -20 -22 -15 -34 -33 -62 -47 -71 -6 -4 -10 -16 -8 -27 2 -11 -1 -19
-8 -17 -7 1 -11 -6 -9 -17 2 -10 -1 -15 -6 -12 -5 3 -14 -6 -21 -20 -7 -15 -7
-23 -1 -19 6 4 -1 -10 -15 -31 -14 -20 -25 -43 -25 -50 0 -8 -5 -14 -11 -14
-6 0 -9 -8 -7 -18 3 -10 -1 -23 -9 -30 -7 -7 -13 -22 -13 -32 0 -11 -4 -20 -9
-20 -5 0 -11 -12 -13 -27 -7 -42 -12 -57 -20 -63 -4 -3 -9 -18 -12 -34 -3 -15
-10 -34 -17 -42 -7 -9 -8 -14 -1 -14 7 0 6 -10 -3 -27 -8 -15 -12 -30 -9 -35
3 -4 1 -8 -4 -8 -5 0 -8 -15 -7 -34 0 -19 -3 -32 -7 -30 -4 3 -6 -12 -4 -32 1
-21 -2 -38 -9 -40 -7 -3 -10 -16 -7 -30 2 -13 -2 -32 -9 -41 -12 -15 -12 -16
1 -8 13 8 13 7 1 -8 -10 -13 -10 -17 -1 -17 8 0 9 -6 5 -17 -4 -10 -8 -24 -8
-30 0 -7 -5 -13 -10 -13 -5 0 -3 -8 4 -17 12 -14 12 -15 1 -9 -11 7 -12 4 -3
-13 8 -14 8 -21 1 -21 -8 0 -8 -6 0 -20 6 -11 7 -20 3 -20 -13 0 -8 -222 5
-247 8 -14 9 -24 2 -28 -6 -4 -8 -10 -5 -15 5 -9 18 -82 18 -107 0 -7 5 -13
10 -13 5 0 4 -7 -3 -15 -7 -8 -8 -15 -3 -15 5 0 10 -12 11 -26 1 -15 6 -32 12
-39 5 -6 7 -15 3 -18 -3 -4 0 -13 7 -22 10 -12 10 -15 0 -15 -10 0 -9 -4 1
-16 7 -9 14 -23 15 -32 4 -30 9 -47 17 -59 5 -7 5 -13 1 -13 -3 0 1 -12 11
-26 9 -15 12 -23 6 -19 -6 3 -2 -10 9 -29 11 -20 17 -36 14 -36 -4 0 -1 -6 5
-13 6 -8 8 -17 4 -20 -3 -4 -1 -7 5 -7 7 0 11 -3 10 -7 -1 -5 3 -18 10 -29 6
-12 8 -24 5 -28 -3 -3 -1 -6 6 -6 7 0 9 -4 6 -10 -3 -5 -1 -10 4 -10 6 0 11
-9 11 -20 0 -11 4 -20 9 -20 9 0 24 -38 22 -53 -1 -4 6 -10 14 -13 8 -3 13
-10 10 -14 -3 -5 1 -15 9 -23 8 -8 13 -17 10 -19 -2 -3 2 -11 11 -18 8 -7 15
-19 15 -26 0 -8 4 -14 9 -14 5 0 12 -8 16 -19 4 -15 63 -97 104 -147 6 -7 7
-15 3 -20 -4 -4 1 -4 11 -1 10 4 16 3 13 -1 -3 -5 6 -20 19 -34 13 -14 21 -29
18 -32 -4 -3 1 -6 11 -6 9 0 14 -4 11 -10 -3 -5 0 -10 7 -10 7 0 19 -9 26 -20
7 -12 17 -18 22 -15 6 3 7 -1 4 -9 -4 -11 0 -16 10 -16 9 0 16 -8 16 -17 0 -9
3 -14 6 -10 7 7 34 -17 34 -31 0 -5 12 -14 26 -20 15 -7 22 -17 18 -24 -4 -7
-3 -8 4 -4 7 4 12 4 12 -1 0 -4 23 -23 50 -42 28 -19 50 -38 50 -43 0 -4 7 -8
15 -8 8 0 15 -4 15 -10 0 -5 7 -10 16 -10 8 0 12 -4 9 -10 -3 -5 1 -10 9 -10
9 0 16 -5 16 -12 0 -6 3 -8 7 -5 3 4 12 -1 20 -11 8 -9 11 -11 7 -3 -4 7 8 3
27 -10 19 -13 36 -27 37 -31 2 -5 10 -8 18 -8 8 0 25 -9 36 -20 12 -11 27 -19
32 -17 6 2 19 -5 30 -14 10 -10 23 -16 28 -13 4 3 8 0 8 -6 0 -7 7 -10 15 -6
8 3 15 2 15 -2 0 -4 14 -16 31 -26 18 -11 29 -13 24 -6 -4 6 13 0 39 -14 29
-16 46 -21 46 -13 0 7 7 4 15 -7 8 -10 26 -18 40 -18 14 0 25 -5 25 -10 0 -5
5 -6 10 -3 5 3 10 1 10 -5 0 -6 5 -8 10 -5 6 4 22 -1 36 -10 14 -9 28 -14 32
-11 3 3 -1 6 -8 6 -7 0 -11 2 -8 5 3 3 20 -1 39 -9 64 -26 82 -30 73 -15 -7
12 -5 12 9 1 9 -8 21 -11 27 -7 5 3 10 2 10 -3 0 -5 9 -12 20 -15 11 -3 20 0
20 6 0 7 5 5 10 -3 5 -8 10 -11 10 -6 0 5 7 3 15 -4 12 -10 15 -10 15 0 0 9 4
9 17 -1 15 -12 16 -12 8 1 -7 12 -6 13 6 4 20 -15 59 -24 59 -13 0 5 5 9 11 9
5 0 8 -4 5 -9 -3 -4 6 -6 19 -3 14 2 25 0 25 -5 0 -5 9 -9 20 -9 11 0 20 3 20
6 0 3 9 6 20 6 11 0 20 -3 20 -7 0 -9 27 -6 36 4 4 3 15 2 25 -4 11 -6 19 -6
19 0 0 11 33 9 42 -3 4 -6 13 -4 22 3 9 8 16 9 16 3 0 -11 18 -11 35 0 6 4 23
5 38 4 15 -2 27 1 27 5 0 5 5 9 11 9 5 0 8 -4 4 -9 -6 -10 45 1 66 15 8 5 9 3
4 -5 -6 -10 -3 -11 12 -2 11 6 23 7 27 4 3 -3 6 -1 6 6 0 9 5 9 20 1 14 -8 20
-8 20 0 0 6 4 9 9 5 5 -3 12 -1 15 3 3 5 19 8 35 7 18 -1 32 4 35 12 3 8 10
12 16 8 5 -3 29 0 52 6 24 7 46 12 51 11 4 -1 7 4 7 11 0 8 4 7 10 -3 7 -11
10 -11 10 -2 0 7 4 11 9 7 5 -3 13 0 16 6 4 5 13 8 21 5 8 -3 14 -1 14 5 0 6
4 8 9 5 5 -3 12 1 15 10 3 8 10 13 16 9 5 -3 22 0 37 8 15 8 34 12 40 10 7 -3
16 2 19 11 3 8 21 18 40 22 19 3 34 10 34 16 0 5 5 6 10 3 6 -3 10 -1 10 5 0
7 6 10 13 7 13 -5 39 17 31 27 -2 3 -1 4 3 1 3 -3 12 0 20 6 7 6 13 8 13 4 0
-4 22 9 48 28 27 19 58 38 70 41 12 4 22 12 22 17 0 5 7 9 15 9 9 0 18 7 21
15 4 8 12 15 20 15 7 0 18 8 23 18 6 9 11 14 11 10 0 -8 36 21 73 57 11 11 16
13 12 5 -8 -13 -6 -13 8 -1 9 7 14 17 11 22 -3 5 1 9 9 9 8 0 22 10 31 23 9
12 14 15 10 7 -6 -12 -5 -13 7 -2 8 7 14 17 14 23 0 5 4 9 9 8 5 0 16 11 26
25 9 15 20 23 23 19 4 -3 7 -1 7 6 0 6 10 22 21 34 12 12 19 15 15 7 -4 -8 -1
-6 8 5 8 11 20 25 25 31 5 7 7 14 5 17 -3 3 4 8 15 12 12 3 19 11 16 16 -4 5
-1 9 5 9 6 0 8 5 5 10 -3 6 -2 10 3 10 10 0 92 106 92 119 0 4 9 16 20 26 11
10 17 22 14 26 -3 5 0 9 5 9 6 0 11 7 11 15 0 8 5 15 10 15 6 0 10 7 10 15 0
8 4 15 10 15 5 0 9 3 8 8 -3 12 25 62 34 62 5 0 6 5 3 10 -3 6 -1 10 4 10 6 0
11 9 11 20 0 11 5 20 11 20 6 0 9 7 5 15 -3 8 -1 15 5 15 6 0 7 5 4 10 -3 6
-1 10 5 10 6 0 8 4 5 10 -3 5 -1 10 4 10 6 0 10 3 9 8 -1 4 4 21 11 37 7 17
14 35 15 40 1 6 7 20 14 31 6 12 8 24 5 28 -3 3 -2 6 4 6 6 0 14 7 17 16 4 10
2 13 -7 8 -8 -5 -8 -2 2 9 7 9 11 24 7 32 -3 9 -2 13 4 10 6 -3 10 5 10 19 0
14 5 26 11 26 5 0 7 5 4 10 -4 6 -1 17 5 25 10 12 10 15 0 15 -9 0 -9 4 -2 13
6 7 12 24 14 37 2 14 6 30 10 35 4 6 5 23 4 38 -2 15 1 27 6 27 5 0 7 4 3 9
-3 5 -1 12 5 16 6 4 7 12 1 23 -6 10 -4 23 5 37 10 15 11 30 5 53 -6 20 -6 34
0 38 5 3 7 10 4 15 -4 5 -2 9 4 9 6 0 6 11 1 30 -5 18 -5 30 1 30 5 0 9 5 9
11 0 5 -6 7 -12 3 -9 -5 -9 -2 1 9 9 12 10 17 2 17 -9 0 -9 5 -1 20 7 14 7 20
0 20 -5 0 -10 5 -10 11 0 5 4 8 8 5 5 -3 9 1 9 9 0 8 -4 15 -9 15 -5 0 -4 9 2
20 7 14 7 20 0 20 -5 0 -10 5 -10 11 0 5 4 8 8 5 5 -3 9 1 9 9 0 8 -3 15 -7
15 -3 0 -6 8 -6 18 -5 100 -9 132 -17 132 -5 0 -4 7 3 15 7 8 8 15 3 15 -8 0
-14 28 -15 70 -1 8 -6 21 -12 29 -9 12 -8 13 4 6 9 -5 8 0 -4 13 -11 12 -14
22 -8 22 5 0 8 9 5 20 -3 11 -8 20 -12 20 -4 0 -7 8 -7 18 -2 28 -12 69 -23
90 -6 11 -7 22 -4 26 3 3 1 6 -5 6 -6 0 -9 9 -7 20 2 11 0 20 -5 20 -5 0 -12
16 -16 35 -3 19 -9 35 -13 35 -4 0 -7 9 -8 20 -1 11 -9 27 -17 36 -18 17 -21
28 -6 19 6 -3 7 1 4 9 -3 9 -10 16 -15 16 -5 0 -9 8 -9 19 0 10 -7 24 -15 31
-8 7 -12 16 -9 21 3 5 0 9 -6 9 -6 0 -8 5 -5 10 3 6 1 10 -5 10 -7 0 -10 6 -7
13 3 8 -3 20 -13 27 -11 8 -17 17 -14 22 3 4 0 8 -6 8 -6 0 -8 5 -5 10 3 6 1
10 -4 10 -6 0 -11 6 -11 14 0 7 -7 19 -15 26 -9 7 -13 15 -11 17 5 5 -4 18
-36 54 -10 10 -16 19 -13 19 3 0 -3 10 -14 22 -11 11 -18 25 -16 29 3 4 -4 10
-15 14 -11 3 -20 12 -20 18 0 7 -14 26 -30 44 -17 18 -30 37 -30 42 0 10 -14
15 -32 12 -4 0 -5 6 -2 14 4 10 0 15 -12 15 -9 0 -14 3 -11 7 4 3 -6 19 -22
34 -16 15 -28 29 -26 31 2 2 -3 9 -11 16 -11 10 -14 10 -14 0 -1 -7 -7 -2 -15
12 -8 14 -14 22 -15 19 0 -4 -17 10 -38 30 -62 59 -121 105 -165 127 -23 12
-41 25 -39 28 1 3 -1 6 -5 7 -5 0 -17 8 -27 17 -15 13 -18 14 -12 2 4 -8 -1
-5 -10 8 -9 12 -23 22 -30 22 -8 0 -14 5 -14 11 0 5 -4 7 -10 4 -5 -3 -10 -1
-10 5 0 6 -4 9 -9 6 -4 -3 -19 3 -31 14 -26 23 -34 25 -24 8 4 -7 -4 -3 -18
10 -13 12 -28 19 -31 15 -4 -3 -7 -1 -7 6 0 7 -4 9 -10 6 -5 -3 -10 -1 -10 4
0 6 -9 11 -20 11 -11 0 -20 5 -20 11 0 5 -4 7 -10 4 -5 -3 -10 -2 -10 4 0 6
-6 8 -14 5 -8 -3 -17 -1 -21 5 -3 6 -15 11 -26 11 -10 0 -19 5 -19 11 0 5 -4
8 -9 4 -5 -3 -12 -1 -16 5 -4 6 -10 8 -15 5 -12 -7 -41 5 -35 15 3 5 -4 6 -15
3 -12 -3 -20 0 -20 6 0 7 -5 9 -10 6 -6 -4 -17 -1 -25 5 -8 7 -15 9 -15 5 0
-4 -8 -1 -17 6 -10 8 -14 9 -10 2 5 -7 -4 -6 -23 3 -16 9 -34 13 -40 9 -5 -3
-10 -1 -10 5 0 7 -6 10 -14 7 -7 -3 -19 0 -25 6 -9 9 -14 9 -20 -2 -7 -11 -11
-10 -20 5 -8 14 -11 15 -11 4 0 -13 -1 -13 -10 0 -5 8 -10 11 -10 6 0 -5 -8
-2 -17 5 -15 12 -16 12 -8 -1 8 -13 7 -13 -8 -1 -14 11 -17 11 -17 0 0 -11 -2
-11 -10 1 -9 13 -10 13 -10 0 -1 -13 -2 -13 -13 0 -14 17 -47 23 -47 8 0 -5
-4 -6 -10 -3 -26 16 -179 24 -328 17z"/>
</g>
</svg>
